<?xml version="1.0" encoding="iso-8859-1"?>
<!-- Generator: Adobe Illustrator 19.0.0, SVG Export Plug-In . SVG Version: 6.00 Build 0)  -->
<svg version="1.1" id="Capa_1" xmlns="http://www.w3.org/2000/svg" xmlns:xlink="http://www.w3.org/1999/xlink" x="0px" y="0px"
	 viewBox="0 0 512 512" style="enable-background:new 0 0 512 512;" xml:space="preserve">
<path style="fill:#0071BC;" d="M166.421,477.867v-358.4h-59.733l153.6-110.933l153.6,110.933h-59.733v358.4H166.421z"/>
<path style="fill:#E6E6E6;" d="M482.155,503.467H320.021V281.6h110.933l51.2,51.2V503.467z"/>
<path style="fill:#F2F2F2;" d="M430.955,281.6v51.2h51.2L430.955,281.6z"/>
<path style="fill:#06AAE9;" d="M88.623,294.665c-54.101,28.749-74.658,95.906-45.918,150.016s95.906,74.658,150.016,45.918
	c20.412-10.846,36.932-27.802,47.241-48.495l-99.14-49.57L88.623,294.665z"/>
<path style="fill:#FBB03B;" d="M246.729,359.441c-18.278-58.479-80.503-91.068-138.974-72.789
	c-6.613,2.065-13.013,4.745-19.132,8.013l52.198,97.869L246.729,359.441z"/>
<path style="fill:#ED1C24;" d="M246.729,359.441l-105.907,33.092l99.14,49.57C252.855,416.469,255.279,386.833,246.729,359.441
	L246.729,359.441z"/>
<path d="M490.142,330.069c-0.094-0.273-0.162-0.538-0.282-0.802c-0.418-0.93-0.99-1.775-1.707-2.5l-51.2-51.2
	c-0.725-0.717-1.579-1.289-2.509-1.707c-0.256-0.111-0.512-0.179-0.768-0.273c-0.725-0.247-1.476-0.401-2.244-0.444
	c-0.179,0-0.333-0.102-0.512-0.102h-68.233V128h51.2c4.71,0,8.533-3.823,8.533-8.533c0-2.739-1.314-5.316-3.541-6.921L265.28,1.613
	c-2.978-2.15-7.006-2.15-9.984,0l-153.6,110.933c-3.823,2.756-4.685,8.09-1.929,11.913c1.604,2.227,4.181,3.541,6.921,3.541h51.2
	v146.338c-5.649-0.828-11.358-1.246-17.067-1.271c-65.98-0.026-119.492,53.436-119.518,119.415
	C21.269,458.462,74.739,511.974,140.719,512c26.829,0.009,52.873-9.003,73.958-25.6h96.819v17.067c0,4.71,3.823,8.533,8.533,8.533
	h162.133c4.71,0,8.533-3.823,8.533-8.533V332.8c0-0.188-0.094-0.35-0.111-0.538C490.534,331.512,490.389,330.778,490.142,330.069
	L490.142,330.069z M461.555,324.267h-22.067v-22.067L461.555,324.267z M140.821,290.133c41.702-0.145,79.292,25.122,94.891,63.804
	l-90.684,28.356l-44.698-83.789C113.122,292.992,126.895,290.15,140.821,290.133L140.821,290.133z M240.781,370.236
	c1.621,7.322,2.441,14.797,2.441,22.298c0.017,13.013-2.492,25.907-7.381,37.973l-72.269-36.139l11.58-3.627L240.781,370.236z
	 M38.421,392.533c-0.017-34.773,17.63-67.166,46.857-86.008l48.017,90.027l0.06,0.085c0.137,0.247,0.333,0.444,0.486,0.674
	c0.282,0.435,0.597,0.853,0.947,1.237l0.111,0.119c0.188,0.154,0.393,0.299,0.597,0.435c0.393,0.324,0.819,0.606,1.271,0.853
	c0.085,0.043,0.145,0.119,0.239,0.171l91.187,45.594C198.84,494.012,135.889,509.363,87.59,480
	C57.05,461.431,38.413,428.279,38.421,392.533L38.421,392.533z M311.488,281.6v187.733h-79.3c6.007-7.177,11.162-15.027,15.36-23.39
	c8.38-16.555,12.74-34.85,12.74-53.41c0.051-52.847-34.671-99.43-85.333-114.466V119.467c0-4.71-3.823-8.533-8.533-8.533h-33.34
	l127.206-91.878l127.206,91.878h-33.34c-4.71,0-8.533,3.823-8.533,8.533v153.6h-25.6C315.311,273.067,311.488,276.89,311.488,281.6z
	 M328.555,494.933v-204.8h93.867V332.8c0,4.71,3.823,8.533,8.533,8.533h42.667v153.6H328.555z"/>
<path d="M345.621,307.2h59.733v17.067h-59.733V307.2z"/>
<path d="M345.621,341.333h59.733V358.4h-59.733V341.333z"/>
<path d="M451.384,350.558c-4.335-1.86-9.344,0.145-11.204,4.48l-22.187,51.789l-35.294-15.693
	c-4.241-1.886-9.216-0.026-11.187,4.173l-25.037,53.333c-2.005,4.267-0.171,9.344,4.096,11.349c1.118,0.529,2.347,0.811,3.584,0.811
	c3.311,0,6.315-1.911,7.723-4.907l21.513-45.764l35.567,15.804c4.309,1.911,9.353-0.026,11.264-4.335
	c0.017-0.034,0.026-0.068,0.043-0.102l25.6-59.733C457.724,357.427,455.718,352.418,451.384,350.558L451.384,350.558z"/>
<path d="M405.355,460.8h51.2v17.067h-51.2V460.8z"/>
<path d="M21.355,145.067h59.733v17.067H21.355L21.355,145.067z"/>
<path d="M21.355,179.2h59.733v17.067H21.355L21.355,179.2z"/>
<path d="M21.355,213.333h59.733V230.4H21.355L21.355,213.333z"/>
<path d="M430.955,25.6h59.733v17.067h-59.733V25.6z"/>
<path d="M430.955,59.733h59.733V76.8h-59.733V59.733z"/>
<g>
</g>
<g>
</g>
<g>
</g>
<g>
</g>
<g>
</g>
<g>
</g>
<g>
</g>
<g>
</g>
<g>
</g>
<g>
</g>
<g>
</g>
<g>
</g>
<g>
</g>
<g>
</g>
<g>
</g>
</svg>
