<svg xmlns="http://www.w3.org/2000/svg" xmlns:xlink="http://www.w3.org/1999/xlink" version="1.1" x="0px" y="0px" viewBox="0 0 100 100" enable-background="new 0 0 100 100" xml:space="preserve"><path d="M74.748,12.751C68.137,6.14,59.348,2.5,49.999,2.5c-9.35,0-18.14,3.64-24.749,10.251  c-6.611,6.61-10.252,15.399-10.252,24.748c0,6.322,1.461,11.619,4.597,16.67c2.77,4.463,6.482,8.147,10.416,12.049  c7.251,7.199,15.471,15.354,18.974,30.476c0.107,0.472,0.529,0.807,1.014,0.807c0.484,0,0.904-0.335,1.015-0.807  c3.502-15.121,11.725-23.276,18.977-30.479c3.932-3.898,7.645-7.586,10.41-12.049c3.141-5.051,4.602-10.348,4.602-16.67  C85,28.151,81.355,19.361,74.748,12.751z M49.999,64.77c-15.036,0-27.269-12.231-27.269-27.271  c0-15.035,12.233-27.269,27.269-27.269c15.037,0,27.269,12.234,27.269,27.269C77.268,52.535,65.035,64.77,49.999,64.77z"/><path d="M59.766,41.642c-1.118,0-2.027,0.909-2.027,2.028s0.909,2.029,2.027,2.029c1.117,0,2.028-0.911,2.028-2.029  S60.883,41.642,59.766,41.642z M59.766,44.542c-0.482,0-0.874-0.39-0.874-0.873c0-0.482,0.392-0.875,0.874-0.875  s0.876,0.394,0.876,0.875C60.642,44.152,60.248,44.542,59.766,44.542z"/><path d="M39.158,41.642c-1.12,0-2.029,0.909-2.029,2.028s0.909,2.029,2.029,2.029c1.118,0,2.029-0.911,2.029-2.029  S40.276,41.642,39.158,41.642z M39.158,44.542c-0.482,0-0.874-0.39-0.874-0.873c0-0.482,0.392-0.875,0.874-0.875  s0.876,0.394,0.876,0.875C40.034,44.152,39.64,44.542,39.158,44.542z"/><path d="M34.555,35.821v7.002l1.784,0.017c0.357-1.217,1.486-2.111,2.818-2.111c1.334,0,2.463,0.895,2.82,2.113l3.458-0.005V30.282  h-5.741L34.555,35.821z M44.799,30.8v5.024H35.93v-0.718l4.044-4.306H44.799z"/><path d="M46.081,42.842h10.865c0.357-1.218,1.486-2.113,2.819-2.113c1.334,0,2.463,0.895,2.82,2.113h2.86V27.754H46.081V42.842z"/></svg>
