<?xml version="1.0" encoding="utf-8"?>
<!-- Generator: Adobe Illustrator 22.1.0, SVG Export Plug-In . SVG Version: 6.00 Build 0)  -->
<svg version="1.1" id="Layer_1" xmlns="http://www.w3.org/2000/svg" xmlns:xlink="http://www.w3.org/1999/xlink" x="0px" y="0px"
	 viewBox="0 0 100 100" style="enable-background:new 0 0 100 100;" xml:space="preserve">
<style type="text/css">
	.st0{fill:#FFFFFF;}
	.st1{fill:#2EC1D8;}
	.st2{fill:none;stroke:#2EC1D8;stroke-width:12;stroke-miterlimit:10;}
</style>
<ellipse class="st0" cx="50" cy="50.8" rx="37.3" ry="38.3"/>
<path class="st1" d="M68.1,59.1c-2.1,0-3.8,1.7-3.8,3.8c0,2.1,1.7,3.8,3.8,3.8s3.8-1.7,3.8-3.8C71.8,60.8,70.3,59.1,68.1,59.1z
	 M68.1,64.4c-0.9,0-1.7-0.8-1.7-1.7c0-0.9,0.8-1.7,1.7-1.7s1.7,0.8,1.7,1.7C69.7,63.8,69,64.4,68.1,64.4z"/>
<path class="st1" d="M29.9,59.1c-2.1,0-3.8,1.7-3.8,3.8c0,2.1,1.7,3.8,3.8,3.8s3.8-1.7,3.8-3.8C33.6,60.8,31.9,59.1,29.9,59.1z
	 M29.9,64.4c-0.9,0-1.7-0.8-1.7-1.7c0-0.9,0.8-1.7,1.7-1.7c0.9,0,1.7,0.8,1.7,1.7C31.5,63.8,30.8,64.4,29.9,64.4z"/>
<path class="st1" d="M21.3,48.3v13h3.4c0.6-2.2,2.7-3.9,5.2-3.9s4.5,1.7,5.2,3.9h6.5V37.9H30.9L21.3,48.3z M40.4,38.9v9.3H23.9V47
	l7.5-8C31.4,38.9,40.4,38.9,40.4,38.9z"/>
<path class="st1" d="M42.7,61.3h20.2c0.6-2.2,2.7-3.9,5.2-3.9c2.5,0,4.5,1.7,5.2,3.9h5.4v-28h-36V61.3z"/>
<circle class="st2" cx="50" cy="50" r="41.8"/>
</svg>
