<?xml version="1.0" encoding="utf-8"?>
<!-- Generator: Adobe Illustrator 22.1.0, SVG Export Plug-In . SVG Version: 6.00 Build 0)  -->
<svg version="1.1" id="Layer_1" xmlns="http://www.w3.org/2000/svg" xmlns:xlink="http://www.w3.org/1999/xlink" x="0px" y="0px"
	 viewBox="0 0 100 100" style="enable-background:new 0 0 100 100;" xml:space="preserve">
<style type="text/css">
	.st0{fill:#FFFFFF;}
	.st1{fill:#282D74;}
</style>
<ellipse class="st0" cx="50" cy="38.1" rx="28.8" ry="29.6"/>
<path class="st1" d="M74.7,12.8C68.1,6.1,59.3,2.5,50,2.5c-9.3,0-18.1,3.6-24.7,10.3C18.6,19.4,15,28.2,15,37.5
	c0,6.3,1.5,11.6,4.6,16.7c2.8,4.5,6.5,8.1,10.4,12c7.3,7.2,15.5,15.4,19,30.5c0.1,0.5,0.5,0.8,1,0.8c0.5,0,0.9-0.3,1-0.8
	c3.5-15.1,11.7-23.3,19-30.5c3.9-3.9,7.6-7.6,10.4-12c3.1-5.1,4.6-10.3,4.6-16.7C85,28.2,81.4,19.4,74.7,12.8z M50,64.8
	c-15,0-27.3-12.2-27.3-27.3c0-15,12.2-27.3,27.3-27.3c15,0,27.3,12.2,27.3,27.3C77.3,52.5,65,64.8,50,64.8z"/>
<path class="st1" d="M63.8,44.2c-1.6,0-2.9,1.3-2.9,2.9s1.3,2.9,2.9,2.9c1.6,0,2.9-1.3,2.9-2.9S65.5,44.2,63.8,44.2z M63.8,48.3
	c-0.7,0-1.3-0.6-1.3-1.3c0-0.7,0.6-1.3,1.3-1.3s1.3,0.6,1.3,1.3C65.1,47.8,64.5,48.3,63.8,48.3z"/>
<path class="st1" d="M34.3,44.2c-1.6,0-2.9,1.3-2.9,2.9s1.3,2.9,2.9,2.9c1.6,0,2.9-1.3,2.9-2.9S35.9,44.2,34.3,44.2z M34.3,48.3
	c-0.7,0-1.3-0.6-1.3-1.3c0-0.7,0.6-1.3,1.3-1.3c0.7,0,1.3,0.6,1.3,1.3C35.6,47.8,35,48.3,34.3,48.3z"/>
<path class="st1" d="M27.7,35.8v10l2.6,0c0.5-1.7,2.1-3,4-3c1.9,0,3.5,1.3,4,3l5,0v-18h-8.2L27.7,35.8z M42.4,28.6v7.2H29.7v-1
	l5.8-6.2H42.4z"/>
<path class="st1" d="M44.2,45.9h15.6c0.5-1.7,2.1-3,4-3c1.9,0,3.5,1.3,4,3H72V24.3H44.2V45.9z"/>
</svg>
