<?xml version="1.0" encoding="utf-8"?>
<!-- Generator: Adobe Illustrator 22.1.0, SVG Export Plug-In . SVG Version: 6.00 Build 0)  -->
<svg version="1.1" id="Layer_1" xmlns="http://www.w3.org/2000/svg" xmlns:xlink="http://www.w3.org/1999/xlink" x="0px" y="0px"
	 viewBox="0 0 100 100" style="enable-background:new 0 0 100 100;" xml:space="preserve">
<style type="text/css">
	.st0{fill:#6B6B6B;}
</style>
<path class="st0" d="M74.7,12.8C68.1,6.1,59.3,2.5,50,2.5c-9.3,0-18.1,3.6-24.7,10.3C18.6,19.4,15,28.2,15,37.5
	c0,6.3,1.5,11.6,4.6,16.7c2.8,4.5,6.5,8.1,10.4,12c7.3,7.2,15.5,15.4,19,30.5c0.1,0.5,0.5,0.8,1,0.8c0.5,0,0.9-0.3,1-0.8
	c3.5-15.1,11.7-23.3,19-30.5c3.9-3.9,7.6-7.6,10.4-12c3.1-5.1,4.6-10.3,4.6-16.7C85,28.2,81.4,19.4,74.7,12.8z M50,64.8
	c-15,0-27.3-12.2-27.3-27.3c0-15,12.2-27.3,27.3-27.3c15,0,27.3,12.2,27.3,27.3C77.3,52.5,65,64.8,50,64.8z"/>
<path class="st0" d="M59.8,41.6c-1.1,0-2,0.9-2,2s0.9,2,2,2c1.1,0,2-0.9,2-2S60.9,41.6,59.8,41.6z M59.8,44.5
	c-0.5,0-0.9-0.4-0.9-0.9c0-0.5,0.4-0.9,0.9-0.9s0.9,0.4,0.9,0.9C60.6,44.2,60.2,44.5,59.8,44.5z"/>
<path class="st0" d="M39.2,41.6c-1.1,0-2,0.9-2,2s0.9,2,2,2c1.1,0,2-0.9,2-2S40.3,41.6,39.2,41.6z M39.2,44.5
	c-0.5,0-0.9-0.4-0.9-0.9c0-0.5,0.4-0.9,0.9-0.9s0.9,0.4,0.9,0.9C40,44.2,39.6,44.5,39.2,44.5z"/>
<path class="st0" d="M34.6,35.8v7l1.8,0c0.4-1.2,1.5-2.1,2.8-2.1c1.3,0,2.5,0.9,2.8,2.1l3.5,0V30.3h-5.7L34.6,35.8z M44.8,30.8v5
	h-8.9v-0.7l4-4.3H44.8z"/>
<path class="st0" d="M46.1,42.8h10.9c0.4-1.2,1.5-2.1,2.8-2.1c1.3,0,2.5,0.9,2.8,2.1h2.9V27.8H46.1V42.8z"/>
</svg>
