<?xml version="1.0" standalone="no"?>
<!DOCTYPE svg PUBLIC "-//W3C//DTD SVG 20010904//EN"
 "http://www.w3.org/TR/2001/REC-SVG-20010904/DTD/svg10.dtd">
<svg version="1.0" xmlns="http://www.w3.org/2000/svg"
 width="700.000000pt" height="700.000000pt" viewBox="0 0 700.000000 700.000000"
 preserveAspectRatio="xMidYMid meet">
<metadata>
Created by potrace 1.11, written by Peter Selinger 2001-2013
</metadata>
<g transform="translate(0.000000,700.000000) scale(0.100000,-0.100000)"
fill="#000000" stroke="none">
<path d="M1417 5144 c-1 -1 -58 -4 -127 -7 -69 -3 -134 -8 -145 -10 -277 -64
-469 -167 -646 -346 -178 -181 -289 -396 -335 -652 -18 -103 -24 -256 -12
-334 4 -27 10 -68 13 -90 11 -74 67 -239 109 -320 196 -375 537 -612 952 -661
67 -8 1042 -12 1053 -4 8 6 10 409 2 411 -4 1 -161 3 -351 4 -410 2 -513 8
-669 40 -168 33 -372 140 -455 237 -72 84 -126 208 -126 289 l0 28 575 0 c316
-1 578 2 584 5 5 3 12 30 16 59 4 28 13 67 21 85 7 17 11 32 8 32 -13 0 71
143 111 188 l47 52 -682 0 -682 0 7 33 c3 17 9 46 12 62 8 47 69 155 115 206
135 146 326 224 643 264 27 3 352 6 722 6 l672 1 46 146 c26 81 55 174 66 206
10 33 17 61 15 63 -4 4 -1555 10 -1559 7z"/>
<path d="M4402 5142 l-34 -3 47 -30 c112 -71 202 -184 250 -316 l27 -71 393
-1 c456 0 482 -1 703 -47 50 -10 187 -65 250 -100 82 -46 190 -152 224 -219
29 -56 58 -147 58 -180 l0 -21 -581 1 -582 0 -18 -90 c-22 -108 -72 -214 -135
-284 l-46 -51 681 0 c669 0 681 0 681 -20 0 -42 -24 -128 -52 -187 -90 -192
-331 -330 -638 -367 -130 -16 -234 -19 -655 -18 -253 1 -801 1 -1218 1 l-759
1 4 193 c3 205 8 228 61 278 69 65 170 90 377 94 91 2 225 4 298 6 73 1 156 6
185 10 29 4 68 10 87 13 312 46 494 233 546 562 33 211 -38 503 -157 637 -70
80 -215 163 -321 183 -18 3 -44 8 -58 11 -14 3 -217 7 -451 10 l-426 5 -52
-164 c-29 -89 -59 -183 -67 -207 -8 -25 -14 -47 -14 -51 0 -3 78 -6 173 -7 94
-1 253 -2 352 -3 279 -3 376 -23 442 -93 86 -89 83 -284 -5 -374 -79 -82 -138
-94 -497 -98 -210 -3 -375 -10 -422 -19 -10 -2 -49 -7 -88 -11 -304 -32 -490
-229 -521 -550 -4 -39 -7 -249 -8 -467 -1 -348 1 -398 14 -398 161 -4 3278 1
3310 5 107 13 129 17 200 37 468 127 813 513 884 990 67 445 -100 864 -459
1154 -122 98 -281 177 -445 219 -90 23 -96 24 -175 31 -73 6 -1305 11 -1363 6z"/>
<path d="M2805 2348 c-54 -12 -110 -52 -130 -94 -54 -114 -20 -279 68 -332 92
-56 237 -42 302 29 43 48 55 93 51 190 -4 97 -33 154 -98 187 -48 25 -131 33
-193 20z m152 -94 c39 -25 52 -64 50 -148 -2 -71 -5 -78 -34 -108 -62 -61
-178 -45 -217 30 -27 53 -21 156 12 200 35 46 136 60 189 26z"/>
<path d="M5337 2344 c-114 -29 -160 -95 -158 -226 1 -101 46 -173 128 -204 47
-18 152 -23 216 -10 36 7 37 8 37 50 l0 44 -44 -13 c-58 -18 -144 -13 -183 10
-40 23 -63 73 -63 136 0 101 49 151 151 155 31 1 74 -4 95 -11 44 -15 53 -8
46 35 -4 26 -9 30 -46 35 -84 11 -132 11 -179 -1z"/>
<path d="M5639 2310 c-1 -46 0 -387 1 -405 0 -7 55 -11 155 -11 165 -1 169 1
161 51 -3 19 -11 20 -115 20 -125 0 -122 -2 -118 80 l2 40 103 0 c109 0 120 5
117 48 -2 21 -7 22 -111 27 l-110 5 -1 55 0 56 113 -1 c63 -1 115 3 115 7 1 4
1 17 1 28 0 11 0 24 -1 30 -1 5 -68 10 -156 12 l-155 3 -1 -45z"/>
<path d="M1069 2344 c-5 -26 -4 -454 1 -455 39 -8 70 -7 71 4 1 6 2 93 3 192
l1 180 50 3 c78 5 112 -4 117 -32 9 -44 -16 -82 -66 -101 -43 -16 -45 -19 -39
-49 3 -17 7 -33 9 -35 7 -8 90 21 125 44 84 54 91 197 12 235 -32 15 -282 27
-284 14z"/>
<path d="M1470 2122 l0 -229 157 1 158 1 0 35 -1 35 -109 2 c-61 1 -113 2
-117 2 -5 1 -8 27 -8 60 l0 59 108 -2 107 -1 3 38 3 37 -111 0 -111 0 3 57 3
58 109 0 c100 0 110 2 116 20 4 11 5 28 2 37 -4 16 -20 18 -158 18 l-154 0 0
-228z"/>
<path d="M1869 2338 c-1 -7 -2 -111 -3 -231 l-1 -218 45 3 44 3 -2 170 c-1 94
1 179 3 190 5 22 6 22 133 16 14 -1 26 -10 31 -23 14 -36 -17 -80 -70 -99 -28
-11 -45 -23 -47 -35 -1 -11 29 -65 68 -121 l71 -103 50 0 c27 0 49 3 49 6 0 5
-98 140 -127 175 -12 15 -9 19 21 37 98 58 99 204 2 231 -56 15 -266 14 -267
-1z"/>
<path d="M2290 2120 l0 -230 40 0 c45 0 42 -9 42 122 1 79 -3 77 121 74 l87
-2 0 38 0 38 -104 0 -104 0 2 58 1 57 108 0 107 -1 0 38 0 38 -150 0 -150 0 0
-230z"/>
<path d="M3187 2343 c-3 -7 -2 -438 2 -454 0 -3 20 -6 44 -5 l42 1 1 190 0
190 54 3 c68 4 97 -3 110 -27 18 -35 -5 -70 -60 -94 -74 -31 -75 -27 24 -171
l59 -86 53 0 54 0 -66 90 c-36 49 -70 93 -75 96 -5 3 8 19 30 35 54 39 73 71
73 121 -1 51 -27 89 -73 105 -37 13 -266 18 -272 6z"/>
<path d="M3610 2121 l0 -229 33 2 c17 2 35 4 38 5 3 0 5 68 5 150 -1 82 1 147
4 144 3 -2 32 -71 65 -151 l60 -147 35 0 35 0 58 150 c32 82 60 151 62 153 2
2 3 -56 3 -130 0 -73 1 -143 1 -155 1 -20 6 -23 41 -23 l40 0 0 230 0 230 -43
0 -43 0 -49 -112 c-27 -62 -62 -141 -78 -176 l-30 -63 -22 53 c-12 29 -46 108
-76 176 l-54 122 -42 0 -43 0 0 -229z"/>
<path d="M4320 2284 c-17 -36 -30 -68 -30 -70 0 -2 -9 -23 -20 -47 -10 -23
-41 -94 -68 -157 l-49 -115 40 -3 c25 -2 43 2 48 10 5 7 38 85 75 173 36 88
69 164 73 168 6 6 30 -46 66 -144 5 -14 0 -16 -30 -12 -43 4 -59 -6 -73 -47
l-10 -28 56 0 c102 0 97 3 123 -62 l24 -60 48 0 c42 0 47 2 39 18 -12 22 -33
70 -122 275 l-72 167 -45 0 -44 0 -29 -66z"/>
<path d="M4694 2120 l-1 -230 42 0 42 0 0 160 c0 88 2 162 5 165 2 2 56 -69
119 -158 l114 -162 45 -3 45 -3 -2 223 c-1 123 -2 226 -2 231 -1 4 -19 7 -41
7 l-40 0 -2 -166 -3 -166 -119 166 -119 166 -41 0 -42 0 0 -230z"/>
</g>
</svg>
