<?xml version="1.0" encoding="utf-8"?>
<!-- Generator: Adobe Illustrator 22.1.0, SVG Export Plug-In . SVG Version: 6.00 Build 0)  -->
<svg version="1.1" id="Capa_1" xmlns="http://www.w3.org/2000/svg" xmlns:xlink="http://www.w3.org/1999/xlink" x="0px" y="0px"
	 viewBox="0 0 351.5 110.6" style="enable-background:new 0 0 351.5 110.6;" xml:space="preserve">
<style type="text/css">
	.st0{fill:#758592;}
	.st1{fill:#C2D500;}
	.st2{fill:none;}
</style>
<g>
	<g>
		<path class="st0" d="M34,67L34,67c0,0-0.1,0-0.4,0c-1.3-0.1-2.5-0.2-3.7-0.3c-5.2-0.7-13.5-3.1-15.5-10.5
			c-0.2-0.8-0.3-1.6-0.3-2.5h26.4c0.4-3.3,1.3-6,3-8c0.5-0.6,1-1.1,1.6-1.6H14c0-0.2,0-0.4,0.1-0.6c1.4-10,13.4-11.8,18.1-12.2
			c0.6,0,1.2-0.1,1.9-0.1h0l0,0c0.7,0,1.4,0,2.1,0h27l3-9.5H36.9c-0.1,0-0.1,0-0.2,0h-7.3c-0.9,0-1.8,0-2.7,0.1
			C14.1,23,3.9,32.9,2.2,45.4c-0.2,1.2-0.3,2.5-0.3,3.7l0,0c0,0.3,0,0.5,0,0.8c0.4,14.8,12.6,26.7,27.5,26.7h21v-9.5l-14.3,0
			C35.4,67.1,34.7,67.1,34,67z"/>
		<g>
			<g>
				<path class="st1" d="M22.7,95.3V84.9h4.7c2.1,0,3.2,1,3.2,2.9c0,2.1-1.5,3.4-4.4,3.9l-0.3-1.7c1.7-0.3,2.6-1,2.6-2.1
					c0-0.9-0.4-1.3-1.3-1.3h-2.6v8.7H22.7z"/>
				<path class="st1" d="M39,84.9v1.7h-5.2v2.6h5v1.7h-5v2.7h5.3v1.7h-7.2V84.9H39z"/>
				<path class="st1" d="M40.9,95.3V84.9h4.7c2.1,0,3.2,0.9,3.2,2.8c0,1.3-0.8,2.3-2.5,3.1l3.3,4.5h-2.4L44,90.7v-0.9
					c1.8-0.3,2.8-1,2.8-2.1c0-0.8-0.4-1.1-1.3-1.1h-2.6v8.7H40.9z"/>
				<path class="st1" d="M57.3,84.9v1.7h-4.9v2.6h4.7v1.7h-4.7v4.4h-1.9V84.9H57.3z"/>
				<path class="st1" d="M58.6,90.1c0-3.5,1.7-5.3,5.2-5.3c3.4,0,5.1,1.8,5.1,5.3c0,3.5-1.7,5.3-5.1,5.3
					C60.5,95.4,58.8,93.6,58.6,90.1z M63.8,93.7c2.1,0,3.1-1.2,3.1-3.6c0-2.4-1-3.6-3.1-3.6c-2.1,0-3.2,1.2-3.2,3.6
					C60.6,92.5,61.7,93.7,63.8,93.7z"/>
				<path class="st1" d="M70.8,95.3V84.9h4.7c2.1,0,3.2,0.9,3.2,2.8c0,1.3-0.8,2.3-2.5,3.1l3.3,4.5h-2.4l-3.2-4.5v-0.9
					c1.8-0.3,2.8-1,2.8-2.1c0-0.8-0.4-1.1-1.3-1.1h-2.6v8.7H70.8z"/>
				<path class="st1" d="M80.4,95.3V84.9h2l3.5,7.9l3.5-7.9h1.9v10.4h-1.8V88l-2.8,7.2h-1.6L82.2,88v7.2H80.4z"/>
				<path class="st1" d="M94.6,95.3h-2l4.4-10.4h2.1l4.5,10.4h-2.1l-1.2-2.8h-3.5l0.7-1.7h2.1L98,86.9L94.6,95.3z"/>
				<path class="st1" d="M104.9,95.3V84.9h1.9l5.5,7.6v-7.6h1.9v10.4h-1.9l-5.5-7.7v7.7H104.9z"/>
				<path class="st1" d="M124.6,94.8c-0.9,0.3-1.9,0.5-3.1,0.5c-3.7,0-5.6-1.8-5.6-5.4c0-3.4,1.9-5.1,5.6-5.1c1.1,0,2.2,0.2,3.1,0.5
					v1.7c-0.9-0.4-1.9-0.6-2.9-0.6c-2.5,0-3.7,1.2-3.7,3.5c0,2.5,1.2,3.7,3.7,3.7c1,0,2-0.2,2.9-0.6V94.8z"/>
				<path class="st1" d="M133.5,84.9v1.7h-5.2v2.6h5v1.7h-5v2.7h5.3v1.7h-7.2V84.9H133.5z"/>
			</g>
			<path class="st1" d="M153.8,45.4C152,33,141.9,23.1,129.3,21.8c-0.9-0.1-1.9-0.1-2.8-0.1h-8.3H97.4c2.1,1,4,2.5,5.5,4.9
				c0.9,1.3,1.6,2.9,2,4.6h15c0.7,0,1.4,0,2,0c0,0,0,0,0.1,0c0.5,0,1,0,1.5,0.1c4.5,0.3,17.3,2.1,18.4,12.8l-26.5,0
				c-0.4,3.3-1.3,6-3,8c-0.5,0.6-1,1.1-1.6,1.6h15.2v0h15.8c0,0.2,0,0.4,0,0.6c-0.8,8.2-8.5,11.2-14.1,12.2
				c-2.1,0.3-4.4,0.5-6.7,0.6L91.8,67l0,0L66.6,67c0-1,0-2.1,0-3.1c0-1.3,0-2.6,0-3.9c0-1.5,0.4-2.9,1.6-3.9c1-0.8,2.2-1.3,3.5-1.6
				c2-0.5,4.1-0.5,5.9-0.4c4.7,0.1,8.3,0,12.2-0.6c1.9-0.3,3.5-0.8,5.2-1.7c0.2-0.1,0.3-0.2,0.5-0.3c7.6-4.5,8.1-16.5,4.1-23.5
				c-2.3-4-6.8-5.9-11.2-6.3c-1-0.1-2.1-0.1-3.3-0.1H72.5h-0.4h-2.4l0,0.1l-3,9.5c4.9,0,8.5,0,11.2,0.1c1.9,0,5,0,6.9,0.3
				c3.3,0.4,5.3,2.2,5.4,5.8c0,2.4-0.8,4-2,5c-0.9,0.8-2.1,1.2-3.4,1.4c-3.6,0.5-7.4,0.2-10.9,0.3c-3.2,0.1-6.5,0.3-9.7,0.9
				c-0.4,0.1-0.8,0.2-1.2,0.3c-2.5,0.7-4.5,2-6.1,3.9c-2.1,2.6-3.1,6.3-3.1,11.1v16.6h37.9H92h34.5c14.9,0,27.1-11.9,27.5-26.7
				c0-0.3,0-0.5,0-0.8C154,47.9,153.9,46.6,153.8,45.4z"/>
		</g>
	</g>
	<g>
		<g>
			<path class="st0" d="M167.4,7.5c0,0,0,0.4,0,1.1c0,0.7,0.1,1.7,0.1,3.1c0.1,2.6,0.2,6.4,0.3,10.9c0,2.3,0.1,4.7,0.1,7.3
				c0,2.6,0.1,5.3,0.1,8.1c0,2.8,0,5.7,0.1,8.7c0,3,0,6,0,9c0,3,0,6,0,9c0,3,0,5.9-0.1,8.7c-0.1,5.6-0.1,10.9-0.2,15.4
				c-0.1,4.5-0.2,8.3-0.3,10.9c0,1.3-0.1,2.3-0.1,3.1c0,0.7,0,1.1,0,1.1s0-0.4,0-1.1c0-0.7-0.1-1.7-0.1-3.1
				c-0.1-2.6-0.2-6.4-0.3-10.9c-0.1-4.5-0.2-9.8-0.2-15.4c0-2.8-0.1-5.7-0.1-8.7c0-3,0-6,0-9c0-3,0-6,0-9c0-3,0-5.9,0.1-8.7
				c0-2.8,0.1-5.5,0.1-8.1c0-2.6,0.1-5,0.1-7.3c0.1-4.5,0.2-8.3,0.3-10.9c0-1.3,0.1-2.4,0.1-3.1C167.3,7.8,167.4,7.5,167.4,7.5z"/>
		</g>
		<g>
			<path class="st1" d="M189.4,30.8v1.8h-5.6v2.8h5.3v1.8h-5.3v2.9h5.7V42h-7.8V30.8H189.4z"/>
			<path class="st1" d="M191.2,42v-8.2h1.6L193,35c0.8-0.8,1.7-1.2,2.7-1.2c1.9,0,2.9,1,2.9,3V42h-2.1v-5.2c0-0.9-0.5-1.4-1.4-1.4
				c-0.7,0-1.3,0.3-2,0.8V42H191.2z"/>
			<path class="st1" d="M207.9,41.5c-1.3,0.3-2.5,0.5-3.7,0.5c-2.6,0-4-1.4-4-4.3c0-2.6,1.3-3.9,3.9-3.9c0.6,0,1.1,0.1,1.7,0.4v-3.4
				h2.1V41.5z M205.8,35.9c-0.4-0.3-1-0.4-1.6-0.4c-1.3,0-1.9,0.7-1.9,2.2c0,1.7,0.7,2.6,2,2.6c0.5,0,1.1-0.1,1.5-0.2V35.9z"/>
			<path class="st0" d="M213.1,42v-1.6c3.7-2.6,5.6-4.7,5.6-6.2c0-1.1-0.7-1.6-2-1.6c-1.1,0-2.2,0.3-3.2,0.9v-1.9
				c1-0.5,2.1-0.8,3.2-0.8c2.7,0,4.1,1.1,4.1,3.3c0,1.9-1.5,4-4.5,6.2h4.5V42H213.1z"/>
			<path class="st1" d="M233.9,30.8v1.8h-5.6v2.8h5.3v1.8h-5.3v2.9h5.7V42h-7.8V30.8H233.9z"/>
			<path class="st1" d="M235.7,42v-8.2h1.6l0.3,1.2c0.8-0.8,1.7-1.2,2.7-1.2c1.9,0,2.9,1,2.9,3V42h-2.1v-5.2c0-0.9-0.5-1.4-1.4-1.4
				c-0.7,0-1.3,0.3-2,0.8V42H235.7z"/>
			<path class="st1" d="M252.4,41.5c-1.3,0.3-2.5,0.5-3.7,0.5c-2.6,0-4-1.4-4-4.3c0-2.6,1.3-3.9,3.9-3.9c0.6,0,1.1,0.1,1.7,0.4v-3.4
				h2.1V41.5z M250.3,35.9c-0.4-0.3-1-0.4-1.6-0.4c-1.3,0-1.9,0.7-1.9,2.2c0,1.7,0.7,2.6,2,2.6c0.5,0,1.1-0.1,1.5-0.2V35.9z"/>
			<path class="st1" d="M258,42V30.8h5c2.3,0,3.4,1,3.4,3.1c0,2.3-1.6,3.7-4.7,4.1l-0.3-1.8c1.9-0.3,2.8-1.1,2.8-2.2
				c0-0.9-0.5-1.4-1.4-1.4h-2.8V42H258z"/>
			<path class="st1" d="M270.7,33.8c2.5,0,3.7,1.3,3.7,3.8c0,0.3,0,0.7-0.1,1H269c0,1.2,0.8,1.7,2.5,1.7c0.8,0,1.7-0.1,2.5-0.2v1.6
				c-0.7,0.2-1.6,0.2-2.6,0.2c-3,0-4.5-1.4-4.5-4.2C266.9,35.1,268.2,33.8,270.7,33.8z M269,37.1h3.5v-0.1c0-1.1-0.6-1.7-1.7-1.7
				C269.7,35.4,269.1,36,269,37.1z"/>
			<path class="st1" d="M276,42v-8.2h1.6l0.3,1c0.7-0.7,1.5-1,2.3-1v1.7c-0.8,0-1.5,0.3-2.1,1V42H276z"/>
			<path class="st1" d="M281.3,42v-8.2c0-2.2,1.2-3.4,3.7-3.4c0.7,0,1.3,0.1,1.8,0.3v1.6c-0.5-0.2-1.1-0.3-1.7-0.3
				c-1.2,0-1.8,0.6-1.8,1.7h2.5v1.6h-2.5V42H281.3z"/>
			<path class="st1" d="M286.2,37.9c0-2.7,1.4-4.1,4.1-4.1c2.7,0,4.1,1.4,4.1,4.1c0,2.7-1.4,4.1-4.1,4.1
				C287.5,42,286.2,40.6,286.2,37.9z M290.2,40.4c1.3,0,2-0.9,2-2.6c0-1.7-0.7-2.5-2-2.5c-1.3,0-2,0.8-2,2.5
				C288.3,39.5,288.9,40.4,290.2,40.4z"/>
			<path class="st1" d="M295.9,42v-8.2h1.6l0.3,1c0.7-0.7,1.5-1,2.3-1v1.7c-0.8,0-1.5,0.3-2.1,1V42H295.9z"/>
			<path class="st1" d="M301.2,42v-8.2h1.6l0.2,1.2c0.7-0.8,1.6-1.2,2.6-1.2c1,0,1.7,0.4,2.1,1.1c0.8-0.7,1.7-1.1,2.6-1.1
				c1.9,0,2.8,1,2.8,3.1V42h-2.1v-5.2c0-0.9-0.4-1.4-1.2-1.4c-0.6,0-1.2,0.3-1.8,0.8V42h-2.1v-5.1c0-0.9-0.4-1.4-1.1-1.4
				c-0.6,0-1.2,0.3-1.7,0.8V42H301.2z"/>
			<path class="st1" d="M314.8,39.4c0-1.6,1.2-2.4,3.6-2.4c0.6,0,1.1,0.1,1.7,0.2v-0.6c0-0.7-0.5-1.1-1.6-1.1c-0.9,0-1.9,0.1-3,0.4
				v-1.6c1.1-0.3,2.1-0.4,3-0.4c2.4,0,3.7,0.9,3.7,2.7V42h-1.2l-0.7-0.7c-0.7,0.5-1.5,0.7-2.4,0.7C315.8,42,314.8,41.1,314.8,39.4z
				 M318.3,38.4c-1,0-1.5,0.3-1.5,1c0,0.7,0.4,1.1,1.2,1.1c0.7,0,1.3-0.2,1.9-0.6v-1.3C319.5,38.4,318.9,38.4,318.3,38.4z"/>
			<path class="st1" d="M324,42v-8.2h1.6l0.3,1.2c0.8-0.8,1.7-1.2,2.7-1.2c1.9,0,2.9,1,2.9,3V42h-2.1v-5.2c0-0.9-0.5-1.4-1.4-1.4
				c-0.7,0-1.3,0.3-2,0.8V42H324z"/>
			<path class="st1" d="M339.5,41.7c-0.7,0.2-1.4,0.2-2.1,0.2c-2.9,0-4.4-1.4-4.4-4.3c0-2.6,1.5-3.9,4.4-3.9c0.7,0,1.4,0.1,2.1,0.2
				v1.6c-0.7-0.2-1.3-0.2-2-0.2c-1.6,0-2.5,0.8-2.5,2.3c0,1.7,0.8,2.6,2.5,2.6c0.6,0,1.3-0.1,2-0.2V41.7z"/>
			<path class="st1" d="M344.3,33.8c2.5,0,3.7,1.3,3.7,3.8c0,0.3,0,0.7-0.1,1h-5.4c0,1.2,0.8,1.7,2.5,1.7c0.8,0,1.7-0.1,2.5-0.2v1.6
				c-0.7,0.2-1.6,0.2-2.6,0.2c-3,0-4.5-1.4-4.5-4.2C340.5,35.1,341.8,33.8,344.3,33.8z M342.5,37.1h3.5v-0.1c0-1.1-0.6-1.7-1.7-1.7
				C343.2,35.4,342.6,36,342.5,37.1z"/>
			<path class="st0" d="M189,48v1.2h-5.9v3.7h5.6v1.2h-5.6V58h6v1.2h-7.4V48H189z"/>
			<path class="st0" d="M191.3,59.1v-8.2h1l0.3,1c1-0.7,2-1,3-1c1.9,0,2.8,1,2.8,3.1v5.1h-1.4V54c0-1.2-0.6-1.8-1.8-1.8
				c-0.8,0-1.6,0.3-2.4,1v6H191.3z"/>
			<path class="st0" d="M200.7,59.1V48h1.4v3.9c0.9-0.6,1.8-0.9,2.8-0.9c1.9,0,2.8,1,2.8,3.1v5.1h-1.4V54c0-1.2-0.6-1.8-1.8-1.8
				c-0.8,0-1.6,0.3-2.4,1v6H200.7z"/>
			<path class="st0" d="M209.7,56.6c0-1.7,1.1-2.5,3.3-2.5c0.8,0,1.5,0.1,2.1,0.2v-0.8c0-0.9-0.7-1.3-2.2-1.3
				c-0.8,0-1.7,0.1-2.6,0.4v-1.2c0.9-0.3,1.7-0.4,2.6-0.4c2.4,0,3.7,0.9,3.7,2.6v5.6h-0.7l-0.6-0.6c-0.7,0.4-1.6,0.6-2.5,0.6
				C210.7,59.1,209.7,58.3,209.7,56.6z M213,55.2c-1.3,0-1.9,0.4-1.9,1.3c0,0.9,0.5,1.4,1.6,1.4c1,0,1.8-0.2,2.4-0.6v-1.9
				C214.6,55.3,213.9,55.2,213,55.2z"/>
			<path class="st0" d="M219,59.1v-8.2h1l0.3,1c1-0.7,2-1,3-1c1.9,0,2.8,1,2.8,3.1v5.1h-1.4V54c0-1.2-0.6-1.8-1.8-1.8
				c-0.8,0-1.6,0.3-2.4,1v6H219z"/>
			<path class="st0" d="M234.6,58.9c-0.7,0.2-1.4,0.2-2.2,0.2c-3,0-4.4-1.4-4.4-4.3c0-2.6,1.5-3.9,4.4-3.9c0.8,0,1.5,0.1,2.2,0.2
				v1.2c-0.7-0.2-1.4-0.2-2-0.2c-2.1,0-3.2,0.9-3.2,2.8c0,2.1,1.1,3.1,3.2,3.1c0.7,0,1.4-0.1,2-0.2V58.9z"/>
			<path class="st0" d="M237.8,48v1.2h-1.4V48H237.8z M237.8,50.9v8.2h-1.4v-8.2H237.8z"/>
			<path class="st0" d="M240.1,59.1v-8.2h1l0.3,1c1-0.7,2-1,3-1c1.9,0,2.8,1,2.8,3.1v5.1h-1.4V54c0-1.2-0.6-1.8-1.8-1.8
				c-0.8,0-1.6,0.3-2.4,1v6H240.1z"/>
			<path class="st0" d="M256.5,59.1c0,2-1.3,3-3.8,3c-1,0-1.9-0.1-2.7-0.4v-1.2c0.8,0.3,1.7,0.4,2.7,0.4c1.5,0,2.3-0.6,2.3-1.8v-0.4
				c-0.6,0.3-1.3,0.4-2,0.4c-2.6,0-3.9-1.4-3.9-4.1c0-2.7,1.4-4.1,4.1-4.1c1.1,0,2.2,0.1,3.2,0.3V59.1z M255,52.3
				c-0.5-0.1-1.1-0.2-1.8-0.2c-1.7,0-2.6,0.9-2.6,2.8c0,1.9,0.8,2.9,2.5,2.9c0.7,0,1.4-0.1,2-0.4V52.3z"/>
			<path class="st0" d="M262.8,58.7v-1.3c1.2,0.4,2.4,0.6,3.8,0.6c1.9,0,2.9-0.7,2.9-2.1c0-1.2-0.7-1.8-2.1-1.8h-1.6
				c-2.3,0-3.5-1-3.5-3c0-2.1,1.5-3.2,4.5-3.2c1.3,0,2.5,0.2,3.6,0.5v1.3c-1.1-0.4-2.3-0.6-3.6-0.6c-2,0-3,0.7-3,2
				c0,1.2,0.7,1.8,2.1,1.8h1.6c2.4,0,3.6,1,3.6,3c0,2.2-1.4,3.3-4.3,3.3C265.2,59.2,263.9,59.1,262.8,58.7z"/>
			<path class="st0" d="M279.4,55.5h-5.5c0,1.7,1.1,2.5,3.2,2.5c0.7,0,1.4-0.1,2.2-0.2v1.2c-0.7,0.2-1.6,0.2-2.6,0.2
				c-2.8,0-4.1-1.4-4.1-4.2c0-2.7,1.3-4,3.9-4C278.9,50.9,279.9,52.4,279.4,55.5z M273.9,54.3h4.2c0.1-1.4-0.6-2.2-2-2.2
				C274.7,52.1,274,52.8,273.9,54.3z"/>
			<path class="st0" d="M281.7,59.1v-8.2h1l0.3,1c0.7-0.7,1.6-1,2.6-1v1.2c-1,0-1.8,0.3-2.4,1v6H281.7z"/>
			<path class="st0" d="M285.8,50.9h1.6l2.3,6.4l2.3-6.4h1.6l-3.3,8.2h-1.3L285.8,50.9z"/>
			<path class="st0" d="M296.2,48v1.2h-1.4V48H296.2z M296.2,50.9v8.2h-1.4v-8.2H296.2z"/>
			<path class="st0" d="M304.8,58.9c-0.7,0.2-1.4,0.2-2.2,0.2c-3,0-4.4-1.4-4.4-4.3c0-2.6,1.5-3.9,4.4-3.9c0.8,0,1.5,0.1,2.2,0.2
				v1.2c-0.7-0.2-1.4-0.2-2-0.2c-2.1,0-3.2,0.9-3.2,2.8c0,2.1,1.1,3.1,3.2,3.1c0.7,0,1.4-0.1,2-0.2V58.9z"/>
			<path class="st0" d="M313.1,55.5h-5.5c0,1.7,1.1,2.5,3.2,2.5c0.7,0,1.4-0.1,2.2-0.2v1.2c-0.7,0.2-1.6,0.2-2.6,0.2
				c-2.8,0-4.1-1.4-4.1-4.2c0-2.7,1.3-4,3.9-4C312.6,50.9,313.6,52.4,313.1,55.5z M307.6,54.3h4.2c0.1-1.4-0.6-2.2-2-2.2
				C308.4,52.1,307.7,52.8,307.6,54.3z"/>
			<path class="st0" d="M181.7,76.3V65.2h4.8c2.1,0,3.2,0.9,3.2,2.7c0,2-1.5,3.3-4.4,3.7l-0.3-1.2c2.1-0.3,3.2-1.2,3.2-2.5
				c0-1-0.6-1.5-1.8-1.5h-3.2v10H181.7z"/>
			<path class="st0" d="M198,72.6h-5.5c0,1.7,1.1,2.5,3.2,2.5c0.7,0,1.4-0.1,2.2-0.2v1.2c-0.7,0.2-1.6,0.2-2.6,0.2
				c-2.8,0-4.1-1.4-4.1-4.2c0-2.7,1.3-4,3.9-4C197.5,68.1,198.5,69.6,198,72.6z M192.5,71.4h4.2c0.1-1.4-0.6-2.2-2-2.2
				C193.3,69.3,192.6,70,192.5,71.4z"/>
			<path class="st0" d="M200.3,76.3v-8.2h1l0.3,1c0.7-0.7,1.6-1,2.6-1v1.2c-1,0-1.8,0.3-2.4,1v6H200.3z"/>
			<path class="st0" d="M205.5,76.4v-8.6c0-2,1-3,3.1-3c0.7,0,1.3,0.1,1.8,0.3v1.2c-0.5-0.2-1.1-0.3-1.8-0.3c-1.1,0-1.6,0.5-1.6,1.4
				v0.9h2.5v1.2H207v7L205.5,76.4z"/>
			<path class="st0" d="M210.8,72.2c0-2.7,1.3-4.1,3.9-4.1c2.6,0,3.9,1.4,3.9,4.1c0,2.7-1.3,4.1-3.9,4.1
				C212.1,76.3,210.8,75,210.8,72.2z M214.7,75.2c1.6,0,2.5-1,2.5-3c0-1.9-0.8-2.9-2.5-2.9c-1.6,0-2.5,1-2.5,2.9
				C212.2,74.2,213,75.2,214.7,75.2z"/>
			<path class="st0" d="M220.5,76.3v-8.2h1l0.3,1c0.7-0.7,1.6-1,2.6-1v1.2c-1,0-1.8,0.3-2.4,1v6H220.5z"/>
			<path class="st0" d="M225.8,76.3v-8.2h1l0.2,1c0.9-0.7,1.9-1,2.8-1c1,0,1.8,0.4,2.2,1.1c1-0.7,2-1.1,2.9-1.1c1.7,0,2.6,1,2.6,3.1
				v5.1h-1.4v-5.2c0-1.2-0.5-1.8-1.5-1.8c-0.8,0-1.5,0.4-2.2,1.1v5.9h-1.4v-5.1c0-1.2-0.5-1.9-1.5-1.9c-0.8,0-1.5,0.4-2.2,1.1v5.9
				H225.8z"/>
			<path class="st0" d="M239.5,73.8c0-1.7,1.1-2.5,3.3-2.5c0.8,0,1.5,0.1,2.1,0.2v-0.8c0-0.9-0.7-1.3-2.2-1.3
				c-0.8,0-1.7,0.1-2.6,0.4v-1.2c0.9-0.3,1.7-0.4,2.6-0.4c2.4,0,3.7,0.9,3.7,2.6v5.6h-0.7l-0.6-0.6c-0.7,0.4-1.6,0.6-2.5,0.6
				C240.5,76.3,239.5,75.5,239.5,73.8z M242.8,72.4c-1.3,0-1.9,0.4-1.9,1.3c0,0.9,0.5,1.4,1.6,1.4c1,0,1.8-0.2,2.4-0.6v-1.9
				C244.4,72.5,243.7,72.4,242.8,72.4z"/>
			<path class="st0" d="M248.7,76.3v-8.2h1l0.3,1c1-0.7,2-1,3-1c1.9,0,2.8,1,2.8,3.1v5.1h-1.4v-5.2c0-1.2-0.6-1.8-1.8-1.8
				c-0.8,0-1.6,0.3-2.4,1v6H248.7z"/>
			<path class="st0" d="M264.4,76.1c-0.7,0.2-1.4,0.2-2.2,0.2c-3,0-4.4-1.4-4.4-4.3c0-2.6,1.5-3.9,4.4-3.9c0.8,0,1.5,0.1,2.2,0.2
				v1.2c-0.7-0.2-1.4-0.2-2-0.2c-2.1,0-3.2,0.9-3.2,2.8c0,2.1,1.1,3.1,3.2,3.1c0.7,0,1.4-0.1,2-0.2V76.1z"/>
			<path class="st0" d="M272.7,72.6h-5.5c0,1.7,1.1,2.5,3.2,2.5c0.7,0,1.4-0.1,2.2-0.2v1.2c-0.7,0.2-1.6,0.2-2.6,0.2
				c-2.8,0-4.1-1.4-4.1-4.2c0-2.7,1.3-4,3.9-4C272.2,68.1,273.2,69.6,272.7,72.6z M267.2,71.4h4.2c0.1-1.4-0.6-2.2-2-2.2
				C268,69.3,267.3,70,267.2,71.4z"/>
			<path class="st0" d="M276,74.9v1.4h-1.4v-1.4H276z"/>
		</g>
	</g>
</g>
<polyline class="st2" points="-39,-11.7 373.7,-11.7 373.7,143.4 "/>
</svg>
